<svg width="128" height="128" viewBox="0 0 128 128" fill="none" xmlns="http://www.w3.org/2000/svg">
  <defs>
    <linearGradient id="bg" x1="16" y1="10" x2="112" y2="118" gradientUnits="userSpaceOnUse">
      <stop stop-color="#2342A5"/>
      <stop offset="1" stop-color="#12245A"/>
    </linearGradient>
    <linearGradient id="shine" x1="30" y1="22" x2="92" y2="102" gradientUnits="userSpaceOnUse">
      <stop stop-color="#F7C667"/>
      <stop offset="1" stop-color="#E0A63A"/>
    </linearGradient>
  </defs>
  <rect x="4" y="4" width="120" height="120" rx="30" fill="url(#bg)"/>
  <g transform="translate(-3 -3) scale(1.24)">
    <path d="M41 35C49.6 26.8 64.3 24.7 76.5 30C83.5 33 87.5 37.9 87.5 44.5C87.5 50.9 83.7 55.2 76.1 57.7L57 64.2C50.8 66.2 48 68.5 48 72.4C48 76.8 52.5 80 59.6 80C66.1 80 71.6 77.5 76 72.9L87.1 82.3C79.7 91.3 69.5 96 57.8 96C41 96 29.8 87.4 29.8 74.1C29.8 63.6 35.8 56.8 48.9 52.5L65.8 47.1C70.6 45.5 72.8 43.7 72.8 40.7C72.8 36.7 68.8 34 62.4 34C56.1 34 50.7 36.3 46.4 40.8L41 35Z" fill="url(#shine)"/>
    <circle cx="88" cy="31" r="6.5" fill="#F4F8FF" fill-opacity="0.92"/>
  </g>
</svg>
