<svg xmlns="http://www.w3.org/2000/svg" width="16" height="16" viewBox="0 0 16 16" fill="none">
  <g clip-path="url(#clip0_220_266)">
    <path d="M8 0C12.4182 0 16 3.58156 16 8C16 12.4184 12.4182 16 8 16C3.58194 15.9999 0 12.4184 0 8C3.92944e-06 3.58164 3.58194 0.000135822 8 0ZM8 3.2002C7.78792 3.20026 7.58454 3.28459 7.43457 3.43457C7.28468 3.58458 7.2002 3.78792 7.2002 4V7.2002H4C3.78796 7.20029 3.58451 7.28462 3.43457 7.43457C3.28466 7.58459 3.2002 7.78791 3.2002 8C3.2002 8.21209 3.28467 8.41541 3.43457 8.56543C3.58451 8.71538 3.78796 8.79971 4 8.7998H7.2002V12C7.2002 12.2121 7.28468 12.4154 7.43457 12.5654C7.58454 12.7154 7.78792 12.7997 8 12.7998C8.21217 12.7998 8.41638 12.7155 8.56641 12.5654C8.71614 12.4154 8.7998 12.212 8.7998 12V8.7998H12C12.2121 8.7998 12.4154 8.71543 12.5654 8.56543C12.7155 8.41539 12.7998 8.21218 12.7998 8C12.7998 7.78782 12.7155 7.5846 12.5654 7.43457C12.4154 7.28458 12.2121 7.2002 12 7.2002H8.7998V4C8.7998 3.78803 8.71615 3.58456 8.56641 3.43457C8.41638 3.28454 8.21217 3.2002 8 3.2002Z" fill="white"/>
  </g>
  <defs>
    <clipPath id="clip0_220_266">
      <rect width="16" height="16" fill="white"/>
    </clipPath>
  </defs>
</svg>
