<svg xmlns="http://www.w3.org/2000/svg" width="14" height="14" viewBox="0 0 14 14" fill="none">
  <g clip-path="url(#clip0_225_1967)">
    <path d="M1.33333 7.99057C1.33584 7.81473 1.40772 7.64699 1.53333 7.5239L8.86667 0.190571C8.99129 0.0684202 9.15883 0 9.33333 0C9.50784 0 9.67538 0.0684202 9.8 0.190571L11.8 2.19057C11.9222 2.31519 11.9906 2.48274 11.9906 2.65724C11.9906 2.83174 11.9222 2.99929 11.8 3.1239L4.46667 10.4572C4.34358 10.5828 4.17585 10.6547 4 10.6572H2C1.82319 10.6572 1.65362 10.587 1.5286 10.462C1.40357 10.337 1.33333 10.1674 1.33333 9.99057V7.99057Z" fill="white"/>
    <path d="M12.6667 11.9906H0.666667C0.298477 11.9906 0 12.289 0 12.6572C0 13.0254 0.298477 13.3239 0.666667 13.3239H12.6667C13.0349 13.3239 13.3333 13.0254 13.3333 12.6572C13.3333 12.289 13.0349 11.9906 12.6667 11.9906Z" fill="white"/>
  </g>
  <defs>
    <clipPath id="clip0_225_1967">
      <rect width="13.3333" height="13.3239" fill="white"/>
    </clipPath>
  </defs>
</svg>
