<svg xmlns="http://www.w3.org/2000/svg" width="16" height="14" viewBox="0 0 16 14" fill="none">
  <path d="M12.2854 4.22739C12.127 3.92627 11.8999 3.62631 11.6041 3.3275C10.8111 2.52705 9.85606 2.04337 8.73912 1.87637C7.63114 1.71062 6.56916 1.91363 5.5531 2.48549C4.62357 3.00817 3.93809 3.75778 3.49674 4.73409C3.46386 4.80628 3.38132 5.0343 3.24912 5.41813C3.16932 5.64987 2.95865 5.65393 2.73736 5.59423C2.33944 5.4866 2.02846 5.40389 1.80425 5.3461C1.52084 5.27357 1.47501 5.09333 1.56128 4.81887C1.82809 3.96775 2.1771 3.26127 2.60823 2.69951C3.52921 1.50041 4.68984 0.694906 6.09003 0.282924C7.68154 -0.185772 9.32711 -0.0646443 10.8159 0.590669C11.8282 1.03593 12.8276 1.81941 13.5072 2.74629C13.7677 3.10123 13.9706 3.4276 14.1158 3.72516C14.1274 3.74867 14.154 3.76085 14.1797 3.75439C14.5592 3.65412 15.1003 3.50476 15.8029 3.30614C15.8553 3.29132 15.8945 3.28702 15.9203 3.29331C15.9758 3.30614 16.0103 3.36178 15.9972 3.41742C15.9951 3.42661 15.9917 3.43538 15.9872 3.44366C15.2756 4.7403 14.6778 5.82274 14.1938 6.69109C14.1378 6.79209 14.0634 6.81594 13.9702 6.76245C13.845 6.69109 13.6934 6.59803 13.5154 6.48336C12.6253 5.91075 11.7396 5.35189 10.8582 4.80695C10.8136 4.77921 10.8 4.72076 10.8278 4.67638C10.8406 4.65593 10.8607 4.64111 10.884 4.63498L12.2643 4.27516C12.2821 4.27052 12.2929 4.25231 12.2883 4.23451C12.2876 4.23194 12.2867 4.22979 12.2854 4.22739Z" fill="white"/>
  <path d="M3.76255 9.83112C4.14985 10.4479 4.74731 11.0026 5.35822 11.4034C5.62195 11.5766 5.93866 11.7278 6.30834 11.8568C7.37837 12.2306 8.44899 12.2575 9.52018 11.9376C11.1193 11.4607 12.3693 10.1827 12.8218 8.57249C12.886 8.34547 13.0391 8.26508 13.2813 8.33139C13.2864 8.33297 13.6534 8.42834 14.3822 8.61753C14.6751 8.69362 14.5883 9.05932 14.5184 9.26117C14.058 10.5867 13.3291 11.6581 12.3318 12.4752C11.3995 13.239 10.3097 13.7205 9.06239 13.9199C7.49488 14.1703 5.78719 13.8245 4.46381 13.0083C4.17584 12.8307 3.83513 12.5784 3.44153 12.2511C2.81534 11.7298 2.31594 11.0352 1.92865 10.3313C1.92276 10.321 1.91047 10.316 1.89876 10.319C1.13937 10.5223 0.559601 10.6857 0.159356 10.8093C0.11709 10.8226 0.0787263 10.8185 0.0443484 10.7971C0.00208191 10.7707 -0.0123667 10.7164 0.0114652 10.6731C0.490347 9.80703 0.822916 9.21216 1.00909 8.88843C1.33717 8.31674 1.58305 7.82229 1.91811 7.2723C1.95091 7.21914 2.02066 7.20267 2.07397 7.23529L2.07605 7.23653L5.18168 9.24353C5.22677 9.27276 5.23964 9.33287 5.21033 9.37791C5.19704 9.39836 5.17653 9.41301 5.15286 9.41906L3.78431 9.77598C3.76463 9.78136 3.75301 9.80156 3.75832 9.82119C3.75923 9.82466 3.76073 9.82806 3.76255 9.83112Z" fill="white"/>
</svg>
