<?xml version="1.0" encoding="UTF-8"?>
<svg id="Layer_2" data-name="Layer 2" xmlns="http://www.w3.org/2000/svg" viewBox="0 0 273.2 362.35">
  <g id="Bin_icon_set" data-name="Bin icon set">
    <g id="Bin_icon" data-name="Bin icon">
      <path id="bin" d="M10.45,78.53l20.58,264.63c.84,10.84,9.88,19.2,20.75,19.2h169.62c10.87,0,19.91-8.36,20.75-19.2l20.58-264.63H10.45ZM81.14,313.56c-.22.02-.45.02-.67.02-4.92,0-9.08-3.81-9.43-8.8l-11.7-167.37c-.36-5.21,3.57-9.73,8.78-10.1,5.21-.36,9.73,3.57,10.1,8.78l11.7,167.37c.36,5.21-3.57,9.73-8.78,10.1ZM146.06,304.33c0,5.23-4.24,9.46-9.46,9.46s-9.46-4.24-9.46-9.46v-167.77c0-5.23,4.24-9.46,9.46-9.46s9.46,4.24,9.46,9.46v167.77ZM213.86,137.42l-11.7,167.37c-.35,4.99-4.5,8.8-9.43,8.8-.22,0-.45,0-.67-.02-5.21-.36-9.14-4.89-8.78-10.1l11.7-167.37c.36-5.21,4.88-9.14,10.1-8.78,5.21.36,9.14,4.89,8.78,10.1Z"/>
      <path id="lid" d="M254.28,31.22h-68.8v-3.47c0-15.3-12.45-27.75-27.75-27.75h-42.26c-15.3,0-27.75,12.45-27.75,27.75v3.47H18.92C8.47,31.22,0,39.69,0,50.14v18.92h273.2v-18.92c0-10.45-8.47-18.92-18.92-18.92ZM101.59,27.75c0-7.65,6.22-13.88,13.88-13.88h42.26c7.65,0,13.88,6.22,13.88,13.88v3.47h-70.01v-3.47Z"/>
    </g>
  </g>
</svg>